<mxfile host="app.diagrams.net" modified="2022-01-28T00:04:50.354Z" agent="5.0 (Windows NT 10.0; Win64; x64) AppleWebKit/537.36 (KHTML, like Gecko) Chrome/97.0.4692.99 Safari/537.36" etag="qq36fNvVLlpX60KcPQqp" version="16.4.11" type="github">
  <diagram id="dBjp_e9Jw43d5m4LPmqn" name="第 1 页">
    <mxGraphModel dx="2249" dy="762" grid="1" gridSize="10" guides="1" tooltips="1" connect="1" arrows="1" fold="1" page="1" pageScale="1" pageWidth="827" pageHeight="1169" math="0" shadow="0">
      <root>
        <mxCell id="0" />
        <mxCell id="1" parent="0" />
        <mxCell id="B2-jpr9fRAu7MDFsacZ6-7" value="" style="edgeStyle=orthogonalEdgeStyle;rounded=0;orthogonalLoop=1;jettySize=auto;html=1;entryX=0;entryY=0.5;entryDx=0;entryDy=0;" edge="1" parent="1" source="B2-jpr9fRAu7MDFsacZ6-1" target="B2-jpr9fRAu7MDFsacZ6-4">
          <mxGeometry relative="1" as="geometry">
            <mxPoint x="260" y="200" as="targetPoint" />
          </mxGeometry>
        </mxCell>
        <mxCell id="B2-jpr9fRAu7MDFsacZ6-1" value="reportQueue" style="ellipse;whiteSpace=wrap;html=1;" vertex="1" parent="1">
          <mxGeometry x="40" y="170" width="120" height="60" as="geometry" />
        </mxCell>
        <mxCell id="B2-jpr9fRAu7MDFsacZ6-2" value="接收运营商返回状态报告后已经放进此队列" style="text;html=1;align=center;verticalAlign=middle;resizable=0;points=[];autosize=1;strokeColor=none;fillColor=none;" vertex="1" parent="1">
          <mxGeometry x="-40" y="240" width="240" height="20" as="geometry" />
        </mxCell>
        <mxCell id="B2-jpr9fRAu7MDFsacZ6-5" value="" style="edgeStyle=orthogonalEdgeStyle;rounded=0;orthogonalLoop=1;jettySize=auto;html=1;" edge="1" parent="1" source="B2-jpr9fRAu7MDFsacZ6-3" target="B2-jpr9fRAu7MDFsacZ6-4">
          <mxGeometry relative="1" as="geometry" />
        </mxCell>
        <mxCell id="B2-jpr9fRAu7MDFsacZ6-3" value="StateReportHandler类matchAndSaveReportWorker线程" style="whiteSpace=wrap;html=1;" vertex="1" parent="1">
          <mxGeometry x="310" y="40" width="160" height="60" as="geometry" />
        </mxCell>
        <mxCell id="B2-jpr9fRAu7MDFsacZ6-11" style="edgeStyle=orthogonalEdgeStyle;rounded=0;orthogonalLoop=1;jettySize=auto;html=1;" edge="1" parent="1" source="B2-jpr9fRAu7MDFsacZ6-4" target="B2-jpr9fRAu7MDFsacZ6-9">
          <mxGeometry relative="1" as="geometry" />
        </mxCell>
        <mxCell id="B2-jpr9fRAu7MDFsacZ6-4" value="获取状态报告数据" style="whiteSpace=wrap;html=1;" vertex="1" parent="1">
          <mxGeometry x="330" y="170" width="120" height="60" as="geometry" />
        </mxCell>
        <mxCell id="B2-jpr9fRAu7MDFsacZ6-10" value="" style="edgeStyle=orthogonalEdgeStyle;rounded=0;orthogonalLoop=1;jettySize=auto;html=1;" edge="1" parent="1" source="B2-jpr9fRAu7MDFsacZ6-8" target="B2-jpr9fRAu7MDFsacZ6-9">
          <mxGeometry relative="1" as="geometry" />
        </mxCell>
        <mxCell id="B2-jpr9fRAu7MDFsacZ6-8" value="reportMapQueue" style="ellipse;whiteSpace=wrap;html=1;" vertex="1" parent="1">
          <mxGeometry x="40" y="320" width="120" height="60" as="geometry" />
        </mxCell>
        <mxCell id="B2-jpr9fRAu7MDFsacZ6-14" value="" style="edgeStyle=orthogonalEdgeStyle;rounded=0;orthogonalLoop=1;jettySize=auto;html=1;" edge="1" parent="1" source="B2-jpr9fRAu7MDFsacZ6-9" target="B2-jpr9fRAu7MDFsacZ6-13">
          <mxGeometry relative="1" as="geometry" />
        </mxCell>
        <mxCell id="B2-jpr9fRAu7MDFsacZ6-9" value="获取所有数据" style="whiteSpace=wrap;html=1;" vertex="1" parent="1">
          <mxGeometry x="330" y="320" width="120" height="60" as="geometry" />
        </mxCell>
        <mxCell id="B2-jpr9fRAu7MDFsacZ6-12" value="重发的ticket队列" style="text;html=1;align=center;verticalAlign=middle;resizable=0;points=[];autosize=1;strokeColor=none;fillColor=none;" vertex="1" parent="1">
          <mxGeometry x="50" y="390" width="100" height="20" as="geometry" />
        </mxCell>
        <mxCell id="B2-jpr9fRAu7MDFsacZ6-16" value="" style="edgeStyle=orthogonalEdgeStyle;rounded=0;orthogonalLoop=1;jettySize=auto;html=1;" edge="1" parent="1" source="B2-jpr9fRAu7MDFsacZ6-13" target="B2-jpr9fRAu7MDFsacZ6-15">
          <mxGeometry relative="1" as="geometry" />
        </mxCell>
        <mxCell id="B2-jpr9fRAu7MDFsacZ6-13" value="删除表GSMS_MTO_REPORT_MAP原有数据" style="whiteSpace=wrap;html=1;" vertex="1" parent="1">
          <mxGeometry x="305" y="430" width="170" height="60" as="geometry" />
        </mxCell>
        <mxCell id="B2-jpr9fRAu7MDFsacZ6-18" value="" style="edgeStyle=orthogonalEdgeStyle;rounded=0;orthogonalLoop=1;jettySize=auto;html=1;" edge="1" parent="1" source="B2-jpr9fRAu7MDFsacZ6-15" target="B2-jpr9fRAu7MDFsacZ6-17">
          <mxGeometry relative="1" as="geometry" />
        </mxCell>
        <mxCell id="B2-jpr9fRAu7MDFsacZ6-15" value="重发的记录插入GSMS_MTO_REPORT_MAP" style="whiteSpace=wrap;html=1;" vertex="1" parent="1">
          <mxGeometry x="305" y="525" width="170" height="60" as="geometry" />
        </mxCell>
        <mxCell id="B2-jpr9fRAu7MDFsacZ6-20" value="" style="edgeStyle=orthogonalEdgeStyle;rounded=0;orthogonalLoop=1;jettySize=auto;html=1;" edge="1" parent="1" source="B2-jpr9fRAu7MDFsacZ6-17" target="B2-jpr9fRAu7MDFsacZ6-19">
          <mxGeometry relative="1" as="geometry" />
        </mxCell>
        <mxCell id="B2-jpr9fRAu7MDFsacZ6-17" value="从表中查出对应数据" style="whiteSpace=wrap;html=1;" vertex="1" parent="1">
          <mxGeometry x="330" y="620" width="120" height="60" as="geometry" />
        </mxCell>
        <mxCell id="B2-jpr9fRAu7MDFsacZ6-22" value="" style="edgeStyle=orthogonalEdgeStyle;rounded=0;orthogonalLoop=1;jettySize=auto;html=1;" edge="1" parent="1" source="B2-jpr9fRAu7MDFsacZ6-19" target="B2-jpr9fRAu7MDFsacZ6-21">
          <mxGeometry relative="1" as="geometry" />
        </mxCell>
        <mxCell id="B2-jpr9fRAu7MDFsacZ6-19" value="进行状态报告匹配" style="whiteSpace=wrap;html=1;" vertex="1" parent="1">
          <mxGeometry x="530" y="620" width="120" height="60" as="geometry" />
        </mxCell>
        <mxCell id="B2-jpr9fRAu7MDFsacZ6-21" value="匹配到的状态报告组装成ReportPack存表GSMS_MTO_REPORTPACK，准备发回centrum" style="whiteSpace=wrap;html=1;" vertex="1" parent="1">
          <mxGeometry x="530" y="480" width="170" height="60" as="geometry" />
        </mxCell>
      </root>
    </mxGraphModel>
  </diagram>
</mxfile>
